<svg xmlns="http://www.w3.org/2000/svg" width="143.018" height="156.367" viewBox="0 0 143.018 156.367">
  <g id="Group_9" data-name="Group 9" transform="translate(0 0)">
    <path id="Path_1078" data-name="Path 1078" d="M576.06,63.13V182.8a5.38,5.38,0,0,1-5.378,5.374H522.1a5.368,5.368,0,0,1-5.378-5.374V63.13a5.378,5.378,0,0,1,5.378-5.378h7.27v.932a4.429,4.429,0,0,0,4.428,4.429h24.709a4.392,4.392,0,0,0,2.625-.864,4.122,4.122,0,0,0,.436-.366,4.416,4.416,0,0,0,1.366-3.2v-.932h7.748A5.376,5.376,0,0,1,576.06,63.13Z" transform="translate(-460.588 -51.984)" fill="#f2f2f2"/>
    <circle id="Ellipse_14" data-name="Ellipse 14" cx="10.523" cy="10.523" r="10.523" transform="translate(76.653 70.049)" fill="#f06292"/>
    <path id="Path_1079" data-name="Path 1079" d="M551.487,169.775H495.258a6.657,6.657,0,0,1-3.578-1.03,6.008,6.008,0,0,1-2.831-5.043V32.588a6.257,6.257,0,0,1,6.409-6.077h13.215v1.206a4.815,4.815,0,0,0,4.939,4.668h18.629a5.075,5.075,0,0,0,2.932-.913,4.648,4.648,0,0,0,2.007-3.755V26.511h14.507a6.257,6.257,0,0,1,6.409,6.077V163.7a5.936,5.936,0,0,1-2.257,4.624A6.6,6.6,0,0,1,551.487,169.775ZM495.258,26.88a5.887,5.887,0,0,0-6.04,5.708V163.7a5.64,5.64,0,0,0,2.661,4.731,6.286,6.286,0,0,0,3.379.972h56.229a6.234,6.234,0,0,0,3.92-1.367,5.569,5.569,0,0,0,2.12-4.337V32.588a5.887,5.887,0,0,0-6.04-5.708H537.35v.837a5.017,5.017,0,0,1-2.166,4.058,5.44,5.44,0,0,1-3.143.979H513.412a5.184,5.184,0,0,1-5.309-5.037v-.837Z" transform="translate(-437.861 -26.511)" fill="#3f3d56"/>
    <path id="Path_1080" data-name="Path 1080" d="M628.413,403.9h-32.47v-34.96h32.47Zm-32.054-.416H628V369.352H596.359Z" transform="translate(-525.183 -305.718)" fill="#3f3d56"/>
    <rect id="Rectangle_415" data-name="Rectangle 415" width="21.317" height="0.416" transform="translate(74.833 33.12)" fill="#3f3d56"/>
    <rect id="Rectangle_416" data-name="Rectangle 416" width="21.317" height="0.416" transform="translate(74.833 38.787)" fill="#3f3d56"/>
    <rect id="Rectangle_417" data-name="Rectangle 417" width="21.317" height="0.416" transform="translate(74.833 44.453)" fill="#3f3d56"/>
    <path id="Path_1081" data-name="Path 1081" d="M249.411,738.659l-.2-.074A11.557,11.557,0,0,1,241.78,724.8l.047-.206.2.074a11.557,11.557,0,0,1,7.433,13.784Zm-6.28-5.691a12.949,12.949,0,0,0,6.008,5.187A11.145,11.145,0,0,0,242.1,725.1,12.965,12.965,0,0,0,243.131,732.968Z" transform="translate(-236.2 -595.715)" fill="#3f3d56"/>
    <path id="Path_1082" data-name="Path 1082" d="M220.823,756.963a13.209,13.209,0,0,1,5.053,6.554,11.373,11.373,0,0,1-13.211-7.948A13.21,13.21,0,0,1,220.823,756.963Z" transform="translate(-212.665 -620.856)" fill="#f06292"/>
    <path id="Path_1083" data-name="Path 1083" d="M707.75,767.759l.338,5.578,1.859,2.029,3.888-2.874-2.536-5.747Z" transform="translate(-577.087 -625.19)" fill="#a0616a"/>
    <path id="Path_1084" data-name="Path 1084" d="M918.26,812.031s.075-1.127.207-3.268c0,0,5.71-1.127,5.372,2.761a6.375,6.375,0,0,1-3.212,5.24s-1.352-.169-1.183,1.183-4.9,4.226-7.269,1.521l1.455-8.537s1.588,1.1,2.095.592S918.26,812.031,918.26,812.031Z" transform="translate(-783.033 -664.221)" fill="#2f2e41"/>
    <path id="Path_1085" data-name="Path 1085" d="M656.831,201.334l4.733,9.974-8.51,2.322-1.633-9.084Z" transform="translate(-531.158 -164.164)" fill="#a0616a"/>
    <circle id="Ellipse_15" data-name="Ellipse 15" cx="6.593" cy="6.593" r="6.593" transform="translate(114.178 29.563)" fill="#a0616a"/>
    <path id="Path_1086" data-name="Path 1086" d="M831.207,180.811a9.425,9.425,0,0,0-1.778.246,4.5,4.5,0,0,1-4.809-3.355,2.573,2.573,0,0,0-.246-.8,1.588,1.588,0,0,0-1.687-.513,13.032,13.032,0,0,1-1.823.443,2.791,2.791,0,0,1-2.409-1.363,4.623,4.623,0,0,1-.591-2.793l.463.486a2.353,2.353,0,0,0,.21-1.279,1.484,1.484,0,0,1,1.406.36c.408.043.1-.758.4-1.035a.7.7,0,0,1,.494-.092,3.935,3.935,0,0,0,2.257-1.191,9.591,9.591,0,0,1,4.05-1.848,5.329,5.329,0,0,1,2.955.143,6.314,6.314,0,0,1,2,1.416,12.184,12.184,0,0,1,3.353,4.975,8.375,8.375,0,0,1,.04,4.857c-.244.824-.98,3.647-2.058,3.713C832.08,183.262,832.892,180.912,831.207,180.811Z" transform="translate(-706.12 -141.827)" fill="#2f2e41"/>
    <path id="Path_1087" data-name="Path 1087" d="M605.774,767.759l-.338,5.578-1.859,2.029-3.888-2.874,2.536-5.747Z" transform="translate(-488.975 -625.19)" fill="#a0616a"/>
    <path id="Path_1088" data-name="Path 1088" d="M830.4,255.921s.845-6.255,8.959-4.226,8.959,3.888,8.959,3.888.169,1.69.676,1.86,1.859,1.014,1.183,1.521,3.043,5.578,3.043,5.578,2.2,1.352.845,7.776-2.874,15.721-2.874,15.721.507,3.043-.169,4.733.676,2.874.676,3.55-.338,4.057-.338,4.057-22.99-.845-26.2,0S830.4,255.921,830.4,255.921Z" transform="translate(-711.489 -209.792)" fill="#575a89"/>
    <path id="Path_1089" data-name="Path 1089" d="M840.737,505.755s1.352,3.212,0,8.452-1.69,18.426-1.69,18.426,0,25.526-1.183,26.878a4.925,4.925,0,0,0-.845,3.55h-5.071a11.461,11.461,0,0,0-.507-4.226c-.676-1.521-.507-17.919-.507-17.919l-2.874-22.99-5.747,21.807s-2.2,16.228-3.043,16.9,0,3.381,0,3.381a8.326,8.326,0,0,1-5.071-.845v-2.7s-2.536-1.014-1.69-4.733.507-44.121,3.043-45.98S840.737,505.755,840.737,505.755Z" transform="translate(-701.625 -416.604)" fill="#2f2e41"/>
    <path id="Path_1090" data-name="Path 1090" d="M795.892,812.031s-.075-1.127-.207-3.268c0,0-5.71-1.127-5.372,2.761a6.375,6.375,0,0,0,3.212,5.24s1.352-.169,1.183,1.183,4.9,4.226,7.269,1.521l-1.455-8.537s-1.588,1.1-2.095.592S795.892,812.031,795.892,812.031Z" transform="translate(-683.658 -664.221)" fill="#2f2e41"/>
    <path id="Path_1091" data-name="Path 1091" d="M792.6,512.611l-.507,2.367s-6.086,9.636-1.014,10.65,4.733-9.3,4.733-9.3l.507-2.2Z" transform="translate(-682.649 -422.868)" fill="#a0616a"/>
    <path id="Path_1092" data-name="Path 1092" d="M811.621,280.11s3.55-2.367,5.24.507,3.381,9.467,3.381,9.467l-2.2,16.059-8.114,18.595-4.9-1.859s.845-2.367.507-3.381,1.352-3.55,1.352-3.55l1.69-13.185S809.254,280.279,811.621,280.11Z" transform="translate(-695.667 -232.544)" fill="#575a89"/>
    <path id="Path_1093" data-name="Path 1093" d="M626.573,396.366l-5.578,20.116-2.536-1.014Z" transform="translate(-504.281 -323.19)" opacity="0.1"/>
    <path id="Path_1094" data-name="Path 1094" d="M872.551,283.493a16.58,16.58,0,0,0,4.08-.492l-.083-.328a19.671,19.671,0,0,1-10.611-.585,59.905,59.905,0,0,1-9.876-4.384l-.156.3a60.155,60.155,0,0,0,9.933,4.408A23.015,23.015,0,0,0,872.551,283.493Z" transform="translate(-737.153 -231.329)" opacity="0.1"/>
    <rect id="Rectangle_418" data-name="Rectangle 418" width="32.124" height="34.524" transform="translate(49.33 92.572)" fill="#f06292"/>
    <path id="Path_1095" data-name="Path 1095" d="M345.133,200.132c-2.164-5.107-7.674-6.071-7.674-6.071s-5.3-1.415-9.735,5.325c-4.129,6.282-9.455,12.168-2.7,14.676l1.784-3.746.214,4.312a27.5,27.5,0,0,0,2.973.451c7.491.761,14.552,2.026,14.683-.681C344.85,210.8,347.215,205.046,345.133,200.132Z" transform="translate(-301.652 -163.027)" fill="#2f2e41"/>
    <path id="Path_1096" data-name="Path 1096" d="M310.938,449.015l-.482,12.291s-5.061,9.881-.964,9.64,3.615-9.64,3.615-9.64l1.446-11.568Z" transform="translate(-290.311 -371.013)" fill="#ffb8b8"/>
    <path id="Path_1097" data-name="Path 1097" d="M454.293,437.267l1.446,12.291s4.338,6.507.964,8.676-3.374-7.712-3.374-7.712l-3.615-12.532Z" transform="translate(-405.951 -361.434)" fill="#ffb8b8"/>
    <path id="Path_1098" data-name="Path 1098" d="M386.432,550.637l-4.338,16.87s-1.928,6.748-4.579,10.122l-.964,1.928-3.856-.482,2.651-10.845,1.687-20Z" transform="translate(-343.15 -451.909)" fill="#ffb8b8"/>
    <path id="Path_1099" data-name="Path 1099" d="M386.432,550.637l-4.338,16.87s-1.928,6.748-4.579,10.122l-.964,1.928-3.856-.482,2.651-10.845,1.687-20Z" transform="translate(-343.15 -451.909)" opacity="0.1"/>
    <path id="Path_1100" data-name="Path 1100" d="M333.417,700.746l6.591,1.526-2.716,6.4s1.1,3.833.052,5.864-.9,5.714-.9,5.714l-1.428-.225s-3.468,6.529-7.566,4.664.261-6.3.261-6.3,3.543-7.005,3.993-9.862S333.417,700.746,333.417,700.746Z" transform="translate(-304.827 -576.27)" fill="#2f2e41"/>
    <path id="Path_1101" data-name="Path 1101" d="M333.417,700.746l6.591,1.526-2.716,6.4s1.1,3.833.052,5.864-.9,5.714-.9,5.714l-1.428-.225s-3.468,6.529-7.566,4.664.261-6.3.261-6.3,3.543-7.005,3.993-9.862S333.417,700.746,333.417,700.746Z" transform="translate(-304.827 -576.27)" opacity="0.1"/>
    <path id="Path_1102" data-name="Path 1102" d="M337.448,541.7l3.615,18.075s-1.205,8.917.241,14.46l1.446,5.3h4.82V560.016s.241-15.906-.482-17.111S337.448,541.7,337.448,541.7Z" transform="translate(-314.411 -446.587)" fill="#ffb8b8"/>
    <path id="Path_1103" data-name="Path 1103" d="M367.693,736.207l-6.748.482,1.687,6.748s-1.687,3.615-.964,5.784,0,5.784,0,5.784h1.446s2.41,6.989,6.748,5.784.723-6.266.723-6.266-2.41-7.471-2.41-10.363S367.693,736.207,367.693,736.207Z" transform="translate(-333.57 -605.184)" fill="#2f2e41"/>
    <circle id="Ellipse_16" data-name="Ellipse 16" cx="6.507" cy="6.507" r="6.507" transform="translate(29.303 34.621)" fill="#ffb8b8"/>
    <path id="Path_1104" data-name="Path 1104" d="M377.527,262.994s.482,8.194-.964,8.676,7.471,0,7.471,0-1.205-5.061,0-6.507S377.527,262.994,377.527,262.994Z" transform="translate(-346.175 -219.335)" fill="#ffb8b8"/>
    <path id="Path_1105" data-name="Path 1105" d="M365.163,301.863s-6.266-.482-7.471,0a40.192,40.192,0,0,0-4.579,2.892l1.687,15.183,13.737,2.892,2.169-3.133,2.169-4.579-.964-5.784-.241-3.374Z" transform="translate(-327.184 -250.853)" fill="#d0cde1"/>
    <path id="Path_1106" data-name="Path 1106" d="M326.362,323.7s-3.133.723-3.374,3.133a60.375,60.375,0,0,0,0,9.4c.241.964,0,1.446-.241,1.687s-.723-.241-.241.482.482.723.241,1.446-.964-.241-.482.964.723,1.446.482,1.687a57.831,57.831,0,0,0-.964,5.784l4.1.723,4.1-14.219Z" transform="translate(-301.638 -268.83)" fill="#d0cde1"/>
    <path id="Path_1107" data-name="Path 1107" d="M440.957,323.7a2.568,2.568,0,0,1,2.169,1.446c.723,1.446,2.651,10.845,2.41,11.568s-.723-.241-.241,1.2,0,1.205.241,2.169-.964,0,0,.964,1.446,1.205.964,1.687-1.205-.482-.482.482a4.6,4.6,0,0,1,.723,2.41l-5.784,1.205-1.687-13.5Z" transform="translate(-397.435 -268.83)" fill="#d0cde1"/>
    <path id="Path_1108" data-name="Path 1108" d="M320.286,318.533l1.184-.592a1.014,1.014,0,0,1,1.364.461l5.437,11.118,6.025,3.856,4.338-1.928s3.133-4.82,2.169-7.23c-.654-1.634-1.419-4.148-1.845-5.6a.433.433,0,0,1,.656-.481l.821.548a1.2,1.2,0,0,1,.51.757l1.785,8.631-2.41,5.061v4.82l1.687,26.028s-6.266-.964-12.532-2.169-14.219-2.169-14.219-2.169,4.1-21.208,7.471-24.823c0,0,0-2.651.482-2.892s.964-1.928.964-1.928l-4.365-10.163A1.014,1.014,0,0,1,320.286,318.533Z" transform="translate(-296.316 -264.05)" fill="#2f2e41"/>
    <path id="Path_1109" data-name="Path 1109" d="M163.857,178.158l-5.522-2.892-7.625,1.183-1.578,6.968,3.927-.151,1.1-2.56v2.518l1.812-.07,1.052-4.075.657,4.338,6.442-.131Z" transform="translate(-121.601 -142.909)" fill="#2f2e41"/>
    <ellipse id="Ellipse_17" data-name="Ellipse 17" cx="0.723" cy="1.265" rx="0.723" ry="1.265" transform="translate(28.459 39.863)" fill="#ffb8b8"/>
    <path id="Path_1110" data-name="Path 1110" d="M452.909,413.678h-5.253v-5.253h-.2v5.253H442.2v.2h5.253v5.253h.2V413.88h5.253Z" transform="translate(-360.563 -333.022)" fill="#2f2e41"/>
    <rect id="Rectangle_419" data-name="Rectangle 419" width="21.317" height="0.416" transform="translate(54.71 102.906)" fill="#f2f2f2"/>
    <rect id="Rectangle_420" data-name="Rectangle 420" width="21.317" height="0.416" transform="translate(54.71 108.572)" fill="#f2f2f2"/>
    <rect id="Rectangle_421" data-name="Rectangle 421" width="21.317" height="0.416" transform="translate(54.71 114.239)" fill="#f2f2f2"/>
  </g>
</svg>
