<svg xmlns="http://www.w3.org/2000/svg" width="209.616" height="47.952" viewBox="0 0 209.616 47.952">
  <path id="Logo" d="M2.112-4.006A5.737,5.737,0,0,1,2.4-6.58a6.556,6.556,0,0,1,1.68-.476,4.071,4.071,0,0,1,1.1-.1A82.542,82.542,0,0,1,4.608-16.9a76.122,76.122,0,0,1,.576-9.358,9.129,9.129,0,0,1-1.1-.145,5.732,5.732,0,0,1-1.68-.435,5.891,5.891,0,0,1-.288-2.61A6.765,6.765,0,0,1,2.4-32.23Q3.5-33.5,10.272-33.5a22.328,22.328,0,0,1,5.232.336,10.3,10.3,0,0,1,.7,2.442,15.9,15.9,0,0,1,.408,2.973,1.542,1.542,0,0,1-.144.822,5.05,5.05,0,0,1-2.3.532,5.282,5.282,0,0,1-.816-.048q.528,3.829.576,5.527,7.471-1.793,9.833-5.575a2.943,2.943,0,0,1-.633.048,2.848,2.848,0,0,1-1.85-.677,3.206,3.206,0,0,1-.438-2.079,10.993,10.993,0,0,1,.535-4.013q.487-.384,4.137-.384a45.329,45.329,0,0,1,5.865.359q2.75.359,2.8.943.584.629.584,3.094a6.905,6.905,0,0,1-.292,2.369,6.678,6.678,0,0,1-2.58.627,2.932,2.932,0,0,1-.632-.048q-.925,4.461-6.96,8.534a31.656,31.656,0,0,1,5.061,5.454A43.491,43.491,0,0,1,32.9-6.96a3.4,3.4,0,0,1,2.064.381q1.056.572,1.056,3.431a7.5,7.5,0,0,1-.288,2.621q-1.152.719-7.358.718-6.182,0-7.058-.528-1.063-.286-1.063-3.241a4.974,4.974,0,0,1,.388-2.384q.34-.62,2.087-.62a16.92,16.92,0,0,0-2.313-3.075,25.476,25.476,0,0,0-4.289-3.9,10.25,10.25,0,0,1-2.352.631L13.344-6.96q.288-.048.816-.1a4.758,4.758,0,0,1,2.3.572,1.5,1.5,0,0,1,.144.81A15.475,15.475,0,0,1,16.2-2.743a10.027,10.027,0,0,1-.7,2.407,6.188,6.188,0,0,1-2.448.462Q10.8.336,9.024.336a17.278,17.278,0,0,1-4.272-.49A4.4,4.4,0,0,1,2.4-1.251,6.631,6.631,0,0,1,2.112-4.006Zm35.736.022q0-2.352.96-2.736a5.756,5.756,0,0,1,1.68-.432,9.174,9.174,0,0,1,1.1-.144q-.528-5.568-.528-7.1a12.827,12.827,0,0,1,.48-4.416,9.385,9.385,0,0,1-2.16-.192A5.088,5.088,0,0,1,39-20.784a6.331,6.331,0,0,1,1.3-3.408,42.939,42.939,0,0,1,6.672-.336,27.111,27.111,0,0,1,3.264.192,15.773,15.773,0,0,1,2.472.456q.888.264.888.5a3.252,3.252,0,0,1,.384,1.776,5.4,5.4,0,0,1-.849,3.5q-.159.192-1.284.192a3.715,3.715,0,0,1-1.585-.24,60.416,60.416,0,0,0-.506,8.688A8.37,8.37,0,0,0,49.89-7.1a4.857,4.857,0,0,1,.782-.048,4.857,4.857,0,0,1,2.248.528,2.487,2.487,0,0,1,.192,1.152,12.312,12.312,0,0,1-.384,2.808A8.407,8.407,0,0,1,51.96-.432Q51.206,0,46.92,0q-7.008,0-8.112-1.3A3.1,3.1,0,0,1,37.848-3.984Zm4.8-29.9q0-1.344,1.44-1.344a5.686,5.686,0,0,1,2.592.72,3.633,3.633,0,0,1,2.688-1.008,2.6,2.6,0,0,1,1.805.72,2.535,2.535,0,0,1,.787,1.968,2.9,2.9,0,0,1-.259,1.2,5.259,5.259,0,0,1-.541.96,4.835,4.835,0,0,1-.942.888q-.659.5-1.012.72t-1.248.72q-.894.5-1.134.648A12.468,12.468,0,0,1,43.8-30.84,5.817,5.817,0,0,1,42.648-33.888ZM56.208-1.625a11.211,11.211,0,0,1,.432-2.719,6.477,6.477,0,0,1,1.416-2.5,3.189,3.189,0,0,1,2.472-1.169,8.824,8.824,0,0,1,2.616.442q1.416.442,1.416,1.284a2.044,2.044,0,0,1-.1.505,10.415,10.415,0,0,0,2.352.5,2.86,2.86,0,0,0,1.944-.737,2.294,2.294,0,0,0,.84-1.789,1.9,1.9,0,0,0-.888-1.715,4.392,4.392,0,0,0-2.256-.62,25.021,25.021,0,0,1-2.928-.29,21.768,21.768,0,0,1-2.928-.651,4.075,4.075,0,0,1-2.256-1.761,6.408,6.408,0,0,1-.888-3.57A7.514,7.514,0,0,1,59.088-21.4a8.057,8.057,0,0,1,3.864-2.639,17.093,17.093,0,0,1,5.016-.684,27.153,27.153,0,0,1,4.7.46,2.065,2.065,0,0,1,1.1-1.084q3.552.352,4.7,2.513a14.051,14.051,0,0,1-.456,2.725,6.523,6.523,0,0,1-1.392,2.532,3.2,3.2,0,0,1-2.52,1.206,8.12,8.12,0,0,1-2.592-.471q-1.392-.471-1.392-1.368a2.311,2.311,0,0,1,.1-.538A6.559,6.559,0,0,0,68.4-19.1a2.78,2.78,0,0,0-1.968.762,2.25,2.25,0,0,0-.816,1.659,1.78,1.78,0,0,0,1.368,1.674,12.771,12.771,0,0,0,3.312.717q1.944.191,3.912.578a6.3,6.3,0,0,1,3.336,1.762,5.206,5.206,0,0,1,1.368,3.838A6.91,6.91,0,0,1,75.36-1.788,16.156,16.156,0,0,1,66.912.336a29.841,29.841,0,0,1-4.9-.432A2.042,2.042,0,0,1,60.912.96Q57.36.6,56.208-1.625Zm23.535,11.9a27.929,27.929,0,0,1,.7-5.634q.7-3.294,1.176-3.772A3.242,3.242,0,0,1,82.89.624a6.779,6.779,0,0,1,3.756,1.052q.1,0,.1.685a4.226,4.226,0,0,1-.05.731q.705.137,1.914.412t1.788.411q.579.137,1.343.274T93.16,4.4a13.429,13.429,0,0,0,1.4.069q3.964,0,5.731-1.78t2.149-6.044A16.321,16.321,0,0,1,92.465.48q-8.489,0-8.489-11.712a36.282,36.282,0,0,1,.3-4.9,1.022,1.022,0,0,1-.444.048,15.826,15.826,0,0,1-2.219-.24,7.322,7.322,0,0,1-.567-3.371,8.291,8.291,0,0,1,.614-3.781,25.809,25.809,0,0,1,6.746-1.008,15.7,15.7,0,0,1,5.615.912,5.822,5.822,0,0,1,.944,3.594,6.11,6.11,0,0,1-.739,3.3,1.8,1.8,0,0,1-1.149.355.586.586,0,0,1-.288-.051q-.082-.051-.185-.127a1.02,1.02,0,0,0-.226-.126,18.742,18.742,0,0,0-.246,3.136A6.829,6.829,0,0,0,93.3-9.216a3.48,3.48,0,0,0,2.834,1.488,4.64,4.64,0,0,0,3.555-1.7,6.7,6.7,0,0,0,1.524-4.632,12.215,12.215,0,0,0-.29-2.56,2.86,2.86,0,0,1-1.5.352q-.871,0-1.064-.25-.774-.289-.774-2.837t.764-2.983q2.291-1.61,8.4-1.61,5.392,0,6.8,1.094a8.539,8.539,0,0,1,.146,1.891q0,2.648-.548,3.31-.3.425-1.4.425A4.063,4.063,0,0,1,110.1-17.7q.047,1.064.26,3.384t.355,4.481q.142,2.16.142,4.032a31.553,31.553,0,0,1-1.046,8.64,14.139,14.139,0,0,1-2.9,5.688,11.712,11.712,0,0,1-4.042,2.976,12.085,12.085,0,0,1-4.8.936q-2.655,0-4.173-.072a28.3,28.3,0,0,1-3.912-.54,15.883,15.883,0,0,1-4.291-1.452,5.991,5.991,0,0,1-.553,1.625,4.748,4.748,0,0,1-2.1.246q-3,0-3.145-.394A6.907,6.907,0,0,1,79.743,10.271ZM114.864-2.976q0-3.412.768-3.556,0-.38,1.488-.38,1.248,0,1.488.384.336-2.112,4.656-14.448t4.8-12.384q2.736-.24,6.576-.24,2.352,0,5.28.24.48.048,4.8,12.36t4.656,14.472a2.133,2.133,0,0,1,1.488-.384q1.488,0,1.488.38.768.144.768,3.556,0,2.208-.528,2.4Q151.968,0,145.1,0q-2.928,0-5.616-.168T136.8-.528q-1.056-.672-1.056-3.84a4.589,4.589,0,0,1,.144-1.344.661.661,0,0,1,.36-.528,1.566,1.566,0,0,1,.888-.24q1.392,0,1.392.192.192,0,.192-.554a31.127,31.127,0,0,0-.48-3.814,24.018,24.018,0,0,1-4.176.24,25.258,25.258,0,0,1-4.32-.24,22.264,22.264,0,0,0-.48,3.814q0,.554.192.554,0-.192,1.392-.192a1.566,1.566,0,0,1,.888.24.661.661,0,0,1,.36.528,4.59,4.59,0,0,1,.144,1.344q0,3.168-1.056,3.84,0,.192-2.688.36T122.88,0q-6.864,0-7.488-.576Q114.864-.768,114.864-2.976Zm16.08-12.864a20.027,20.027,0,0,1,2.832-.192,19.658,19.658,0,0,1,3.216.24,85.624,85.624,0,0,0-3.024-9.936A82.709,82.709,0,0,0,130.944-15.84ZM153.48,8.424a8.051,8.051,0,0,1,.247-2.718,3.021,3.021,0,0,1,1.667-.62,14.093,14.093,0,0,1,2.407-.239,2.979,2.979,0,0,1,.672.048q0-.82.1-4t.1-5.548a84.553,84.553,0,0,1,.456-11.184,4.5,4.5,0,0,1-.888.048,16.265,16.265,0,0,1-3.328-.336q-.416-.278-.416-3.946a15.117,15.117,0,0,1,.15-2.774,4.09,4.09,0,0,1,2.2-1.04,16.264,16.264,0,0,1,4.2-.5,36.349,36.349,0,0,1,5.281.208,7.273,7.273,0,0,1,.258,1.824,1.056,1.056,0,0,1-.052.469,24.97,24.97,0,0,0,3.105-1.414,9.122,9.122,0,0,1,3.923-1.183,6.283,6.283,0,0,1,4.556,2.017,12.2,12.2,0,0,1,2.949,4.784,17.059,17.059,0,0,1,.935,5.487,13.9,13.9,0,0,1-2.85,8.616A9.14,9.14,0,0,1,171.453.192a15.114,15.114,0,0,1-4.2-.576q0,.1.072,1.911t.072,3.846a26.769,26.769,0,0,1-.233,5.2Q165.533,12,160.306,12a27.218,27.218,0,0,1-4.153-.262,10.009,10.009,0,0,1-2.048-.453l-.4-.19A8.456,8.456,0,0,1,153.48,8.424Zm12.528-19.032a4.025,4.025,0,0,0,.958,2.736,3.188,3.188,0,0,0,2.531,1.1,4.623,4.623,0,0,0,3.577-1.848,5.952,5.952,0,0,0,1.574-3.912,4.029,4.029,0,0,0-.906-2.64,2.934,2.934,0,0,0-2.384-1.1,5.048,5.048,0,0,0-3.672,1.728A5.5,5.5,0,0,0,166.008-10.608ZM183.216,8.424a8.051,8.051,0,0,1,.247-2.718,3.021,3.021,0,0,1,1.667-.62,14.093,14.093,0,0,1,2.407-.239,2.979,2.979,0,0,1,.672.048q0-.82.1-4t.1-5.548a84.553,84.553,0,0,1,.456-11.184,4.5,4.5,0,0,1-.888.048,16.265,16.265,0,0,1-3.328-.336q-.416-.278-.416-3.946a15.117,15.117,0,0,1,.15-2.774,4.09,4.09,0,0,1,2.2-1.04,16.264,16.264,0,0,1,4.2-.5,36.349,36.349,0,0,1,5.281.208,7.273,7.273,0,0,1,.258,1.824,1.056,1.056,0,0,1-.052.469,24.97,24.97,0,0,0,3.105-1.414,9.122,9.122,0,0,1,3.923-1.183,6.283,6.283,0,0,1,4.556,2.017,12.2,12.2,0,0,1,2.949,4.784,17.058,17.058,0,0,1,.935,5.487,13.9,13.9,0,0,1-2.85,8.616A9.14,9.14,0,0,1,201.189.192a15.114,15.114,0,0,1-4.2-.576q0,.1.072,1.911t.072,3.846a26.769,26.769,0,0,1-.233,5.2Q195.269,12,190.042,12a27.218,27.218,0,0,1-4.153-.262,10.009,10.009,0,0,1-2.048-.453l-.4-.19A8.456,8.456,0,0,1,183.216,8.424Zm12.528-19.032a4.025,4.025,0,0,0,.958,2.736,3.188,3.188,0,0,0,2.531,1.1,4.623,4.623,0,0,0,3.577-1.848,5.952,5.952,0,0,0,1.574-3.912,4.029,4.029,0,0,0-.906-2.64,2.934,2.934,0,0,0-2.384-1.1,5.048,5.048,0,0,0-3.672,1.728A5.5,5.5,0,0,0,195.744-10.608Z" transform="translate(-2.112 35.52)" fill="rgba(0,0,0,0.87)"/>
</svg>
