<svg xmlns="http://www.w3.org/2000/svg" width="179.293" height="144.096" viewBox="0 0 179.293 144.096">
  <g id="Group_11" data-name="Group 11" transform="translate(0 0)">
    <rect id="Rectangle_422" data-name="Rectangle 422" width="179.293" height="0.417" transform="translate(0 133.892)" fill="#3f3d56"/>
    <path id="Path_1111" data-name="Path 1111" d="M700.258,398.628s-8.042,6.319-4.021,7.755,6.606-5.17,6.606-5.17Z" transform="translate(-587.766 -336.139)" fill="#ffb8b8"/>
    <path id="Path_1112" data-name="Path 1112" d="M716.775,386.28l-1.723,2.872s2.872,0,3.447,4.308l2.3-2.872Z" transform="translate(-603.997 -326.089)" fill="#cfcce0"/>
    <path id="Path_1113" data-name="Path 1113" d="M791.25,675.375l.287,8.616L788.091,686l-1.436-.862.287-9.765Z" transform="translate(-640.272 -549.699)" fill="#ffb8b8"/>
    <path id="Path_1114" data-name="Path 1114" d="M787.346,725.845l.574,9.191-8.042,3.447.574-4.883a13.136,13.136,0,0,0,1.723-7.755Z" transform="translate(-656.76 -602.467)" fill="#ffb8b8"/>
    <path id="Path_1115" data-name="Path 1115" d="M785.877,353.868s4.6,12.063,5.457,19.53,2.3,27.285,2.3,27.285l2.872,25.562-8.042,1.149-3.447-25.849-7.755-25.562-1.723,25.562L774.1,424.81l-7.468.287-.574-24.126L762.9,370.239l1.723-14.648Z" transform="translate(-642.941 -299.709)" fill="#2f2e41"/>
    <path id="Path_1116" data-name="Path 1116" d="M904.5,774.7s.471-4.824,3.969-2.125l.626-.46,2.872,6.319s3.447,4.883-2.585,5.457-5.457-5.457-5.457-5.457l-.574-2.585.287-1.693Z" transform="translate(-757.26 -639.835)" fill="#2f2e41"/>
    <path id="Path_1117" data-name="Path 1117" d="M744.633,756.714a4.563,4.563,0,0,1,2.3,4.021c0,2.872-.287,3.159-.287,3.159l-4.308,1.149a6.325,6.325,0,0,0-4.6,1.436c-1.723,1.723-10.34,2.872-10.34.574s7.18-6.032,7.18-6.032,2.132-3.6,3.651-3.237,2.093.939,2.093,1.226a19.8,19.8,0,0,1-.862,2.3S744.346,760.161,744.633,756.714Z" transform="translate(-614.047 -627.592)" fill="#2f2e41"/>
    <circle id="Ellipse_18" data-name="Ellipse 18" cx="7.18" cy="7.18" r="7.18" transform="translate(122.832 4.471)" fill="#ffb8b8"/>
    <path id="Path_1118" data-name="Path 1118" d="M810.641,135.466l3.159,7.18L805.184,155s-.574-13.5-2.3-15.8S810.641,135.466,810.641,135.466Z" transform="translate(-675.316 -121.947)" fill="#ffb8b8"/>
    <path id="Path_1119" data-name="Path 1119" d="M659.141,105.171l1.436-3.734,1.149.287,1.436-1.149,2.01-6.319,2.872,2.01,3.734,37.625-23.264.574,3.159-26.136,2.872-7.468,2.073-2.741,1.373,4.177Z" transform="translate(-527.837 -76.717)" fill="#cfcce0"/>
    <path id="Path_1120" data-name="Path 1120" d="M859.367,188.522l.879-25.981s1.706.132,2.281.993,10.052,2.585,10.052,2.585l-1.723,26.711s7.18,21.254,4.6,22.4-7.18.862-7.18.862Z" transform="translate(-721.457 -143.984)" fill="#575a89"/>
    <path id="Path_1121" data-name="Path 1121" d="M751.631,207.823l3.047-17.51L747.9,194.9l1.723,12.637-1.436,8.616s-5.457,23.839-3.734,24.7a4.95,4.95,0,0,0,3.734,0l3.447-24.126Z" transform="translate(-627.65 -166.588)" fill="#575a89"/>
    <path id="Path_1122" data-name="Path 1122" d="M726.253,211.868l-2.01.574-.862,11.489-1.436,10.053-6.893,12.35s3.447-2.3,4.883,4.308l7.591-13.217Z" transform="translate(-603.996 -184.132)" fill="#575a89"/>
    <path id="Path_1123" data-name="Path 1123" d="M873.127,386.28s-8.042,6.319-4.021,7.755,6.606-5.17,6.606-5.17Z" transform="translate(-728.467 -326.089)" fill="#ffb8b8"/>
    <path id="Path_1124" data-name="Path 1124" d="M777.251,316.572l-2.585,3.159L771.22,313.7l1.436-2.585Z" transform="translate(-627.709 -253.222)" fill="#cfcce0"/>
    <path id="Path_1125" data-name="Path 1125" d="M894.923,182.147l2.3-1.149a11.7,11.7,0,0,1,2.01,4.308c.287,2.01,1.723,4.6,1.723,6.031s4.021,14.935,4.021,14.935l-9.191,18.669s-2.01-6.893-6.319-7.468l7.18-10.053-4.021-7.18Z" transform="translate(-745.955 -159.007)" fill="#575a89"/>
    <path id="Path_1126" data-name="Path 1126" d="M778.515,67.628l1.354-.542s-2.831-3.117-6.77-2.846l1.108-1.22s-2.708-1.084-5.17,1.762a24.029,24.029,0,0,0-3.725,5.235h-1.45l.605,1.333-2.118,1.333,2.174-.239a7.452,7.452,0,0,0-.059,2.21,2.86,2.86,0,0,0,1.047,1.871h0a30.057,30.057,0,0,0,1.679-4.018v1.355s1.354-1.22,1.354-2.033l.739.949.369-1.491,4.554,1.491-.739-1.22,2.831.407-1.108-1.491s3.2,1.762,3.324,3.252a7.155,7.155,0,0,0,1.06,2.9S782.085,69.661,778.515,67.628Z" transform="translate(-642.492 -62.818)" fill="#2f2e41"/>
    <ellipse id="Ellipse_19" data-name="Ellipse 19" cx="0.804" cy="1.005" rx="0.804" ry="1.005" transform="translate(135.096 9.498)" fill="#ffb8b8"/>
    <path id="Path_1127" data-name="Path 1127" d="M70.155,287.73H45.361v-6.948H58.3Z" transform="translate(-36.92 -228.533)" fill="#f06292"/>
    <path id="Path_1128" data-name="Path 1128" d="M163.24,375.811v20.3h80.512v-20.3Zm31.4,16.893H168.485v-2.861h26.156Zm43.866-5.313H168.485V384.53h70.022Zm0-5.313H168.485v-2.861h70.022Z" transform="translate(-154.867 -317.568)" fill="#3f3d56"/>
    <path id="Path_1129" data-name="Path 1129" d="M70.155,111.3H45.361v-6.948H58.3Z" transform="translate(-36.92 -84.931)" fill="#f06292"/>
    <path id="Path_1130" data-name="Path 1130" d="M163.24,201.574v20.3h80.512v-20.3Zm31.4,16.892H168.485v-2.861h26.156Zm15.121-5.313H168.485v-2.861h41.277Zm28.744-5.313H168.485V204.98h70.022Z" transform="translate(-154.867 -175.754)" fill="#3f3d56"/>
    <path id="Path_1131" data-name="Path 1131" d="M70.155,460.5H45.361v-6.948H58.3Z" transform="translate(-36.92 -369.156)" fill="#f06292"/>
    <path id="Path_1132" data-name="Path 1132" d="M163.24,546.388v20.3h80.512v-20.3Zm46.522,16.892H168.485V560.42h41.277Zm0-5.313H168.485v-2.861h41.277Zm28.744-5.313H168.485v-2.861h70.022Z" transform="translate(-154.867 -456.404)" fill="#3f3d56"/>
    <path id="Path_1133" data-name="Path 1133" d="M550.232,173.626H538.789V162.183h7.765v.272h-7.493v10.9h10.9V167.9h.272Z" transform="translate(-438.53 -132.003)" fill="#3f3d56"/>
    <path id="Path_1134" data-name="Path 1134" d="M677.825,229.688c-.265-.781-3.581-3.435-1.549-3.881l1.666,2.222,7.661-7.661.771.771Z" transform="translate(-571.903 -191.051)" fill="#f06292"/>
    <path id="Path_1135" data-name="Path 1135" d="M550.232,347.863H538.789V336.42h7.765v.273h-7.493v10.9h10.9v-5.449h.272Z" transform="translate(-438.53 -273.818)" fill="#3f3d56"/>
    <path id="Path_1136" data-name="Path 1136" d="M677.825,403.926c-.265-.781-3.581-3.435-1.549-3.881l1.666,2.222,7.661-7.661.771.77Z" transform="translate(-571.903 -332.866)" fill="#f06292"/>
    <path id="Path_1137" data-name="Path 1137" d="M550.232,521.369H538.789V509.926h7.765v.272h-7.493v10.9h10.9v-5.449h.272Z" transform="translate(-438.53 -415.037)" fill="#3f3d56"/>
    <path id="Path_1138" data-name="Path 1138" d="M677.825,577.431c-.265-.781-3.581-3.435-1.549-3.881l1.666,2.222,7.661-7.661.771.771Z" transform="translate(-571.903 -474.084)" fill="#f06292"/>
  </g>
</svg>
