<svg xmlns="http://www.w3.org/2000/svg" width="193.924" height="205.192" viewBox="0 0 193.924 205.192">
  <g id="Group_1" data-name="Group 1" transform="translate(0 0)">
    <path id="Path_989" data-name="Path 989" d="M278.349,618.593l-2.31-9.11a118.286,118.286,0,0,0-12.551-4.5l-.291,4.234-1.183-4.664c-5.289-1.51-8.888-2.175-8.888-2.175s4.862,18.483,15.057,32.613l11.879,2.086-9.228,1.331a47.846,47.846,0,0,0,4.128,4.374c14.831,13.765,31.349,20.08,36.895,14.1s-1.982-21.977-16.813-35.742a63.015,63.015,0,0,0-16.155-10.386Z" transform="translate(-251.713 -457.845)" fill="#2196f3"/>
    <path id="Path_990" data-name="Path 990" d="M378.632,554.518l2.731-8.993a118.284,118.284,0,0,0-8.417-10.342l-2.438,3.474,1.4-4.6c-3.747-4.027-6.484-6.456-6.484-6.456s-5.392,18.335-3.968,35.7l9.091,7.926-8.588-3.631a47.877,47.877,0,0,0,1.273,5.879c5.581,19.449,16.457,33.394,24.293,31.145s9.664-19.838,4.083-39.287a63.014,63.014,0,0,0-8.46-17.241Z" transform="translate(-330.028 -403.665)" fill="#2196f3"/>
    <ellipse id="Ellipse_1" data-name="Ellipse 1" cx="96.962" cy="4.958" rx="96.962" ry="4.958" transform="translate(0 195.276)" fill="#3f3d56"/>
    <path id="Path_991" data-name="Path 991" d="M542.726,125.024h-1.1V94.861A17.461,17.461,0,0,0,524.159,77.4H460.229a17.461,17.461,0,0,0-17.465,17.458V260.34A17.461,17.461,0,0,0,460.229,277.8h63.931a17.461,17.461,0,0,0,17.465-17.458V146.5h1.1Z" transform="translate(-389.114 -77.403)" fill="#3f3d56"/>
    <path id="Path_992" data-name="Path 992" d="M550.583,106.935V272.167A13.041,13.041,0,0,1,537.541,285.2H473.3a13.041,13.041,0,0,1-13.043-13.037V106.935A13.041,13.041,0,0,1,473.3,93.9H481.1a6.2,6.2,0,0,0,5.738,8.533h36.625A6.2,6.2,0,0,0,529.2,93.9h8.344a13.041,13.041,0,0,1,13.043,13.037Z" transform="translate(-401.791 -89.353)" fill="#fff"/>
    <path id="Path_993" data-name="Path 993" d="M550.583,564.725V600.24a13.043,13.043,0,0,1-13.043,13.043H473.3A13.043,13.043,0,0,1,460.26,600.24V568.187a61.42,61.42,0,0,1,90.324-3.463Z" transform="translate(-401.791 -417.431)" fill="#e6e6e6"/>
    <path id="Path_994" data-name="Path 994" d="M315.346,377.777h-2.6l.865-50.713h.865Z" transform="translate(-226.6 -237.017)" fill="#e6e6e6"/>
    <path id="Path_995" data-name="Path 995" d="M534.781,224.827l4.191-6.477a97.114,97.114,0,0,0-4.3-10.065l-2.71,2.189,2.146-3.316c-2.045-4.025-3.654-6.561-3.654-6.561s-8.4,13.244-11.213,27.267l5.378,8.311-5.954-4.809a39.3,39.3,0,0,0-.327,4.926c0,16.608,5.424,30.071,12.115,30.071s12.115-13.463,12.115-30.071a51.722,51.722,0,0,0-2.771-15.518Z" transform="translate(-443.871 -166.681)" fill="#e6e6e6"/>
    <path id="Path_996" data-name="Path 996" d="M264.167,459.474h-1.259l.42-24.6h.42Z" transform="translate(-190.487 -315.139)" fill="#e6e6e6"/>
    <path id="Path_997" data-name="Path 997" d="M498.314,425.159l2.032-3.141a47.083,47.083,0,0,0-2.085-4.881l-1.314,1.062,1.041-1.608c-.992-1.952-1.772-3.182-1.772-3.182a45.131,45.131,0,0,0-5.438,13.224l2.608,4.031-2.887-2.332a19.043,19.043,0,0,0-.158,2.389c0,8.055,2.631,14.584,5.876,14.584s5.876-6.53,5.876-14.584a25.082,25.082,0,0,0-1.344-7.526Z" transform="translate(-423.585 -320.894)" fill="#e6e6e6"/>
    <path id="Path_998" data-name="Path 998" d="M383.167,459.474h-1.259l.42-24.6h.42Z" transform="translate(-276.707 -315.139)" fill="#e6e6e6"/>
    <path id="Path_999" data-name="Path 999" d="M617.314,425.159l2.033-3.141a47.1,47.1,0,0,0-2.085-4.881l-1.314,1.062,1.041-1.608c-.992-1.952-1.772-3.182-1.772-3.182a45.133,45.133,0,0,0-5.438,13.224l2.608,4.031-2.887-2.332a19.054,19.054,0,0,0-.158,2.389c0,8.055,2.631,14.584,5.876,14.584s5.876-6.53,5.876-14.584a25.082,25.082,0,0,0-1.344-7.526Z" transform="translate(-509.805 -320.894)" fill="#e6e6e6"/>
    <circle id="Ellipse_2" data-name="Ellipse 2" cx="11.569" cy="11.569" r="11.569" transform="translate(61.152 39.703)" fill="#e6e6e6"/>
    <path id="Path_1000" data-name="Path 1000" d="M415.872,169.322l21.117.524,2.842-25.18h-23.96Z" transform="translate(-301.316 -104.834)" fill="#2f2e41"/>
    <path id="Path_1001" data-name="Path 1001" d="M629.448,153.477l-5.825-22.334s1.609-10.721,5.5-10.544-1.01,10.481-1.01,10.481l6.6,19.293Z" transform="translate(-520.154 -108.699)" fill="#ffb8b8"/>
    <path id="Path_1002" data-name="Path 1002" d="M610.647,443.109l.912,9.122s-28.734,19.612-28.734,27.822-.912,34.207-.912,34.207l10.49.456.912-12.314s2.28-13.683.912-18.7l15.051-11.4s-4.561,5.473-3.649,15.051-1.368,28.277-1.368,28.277l10.946.912s1.368-10.034,1.824-10.946,2.736-17.331.456-21.892l18.7-21.892s6.385-8.21,0-16.419l-3.649-1.824Z" transform="translate(-489.933 -342.432)" fill="#2f2e41"/>
    <path id="Path_1003" data-name="Path 1003" d="M551.381,694.78l-.912,5.929-5.929,14.139s-10.034,5.017-2.736,5.929,10.034-.912,11.4-3.193,4.1-5.929,4.1-5.929l-.456,9.578h2.28l3.738-13.082a8.251,8.251,0,0,0-1.4-7.373l-.054-.068c-1.824-2.28-.912-5.473-.912-5.473Z" transform="translate(-458.945 -524.796)" fill="#2f2e41"/>
    <path id="Path_1004" data-name="Path 1004" d="M634.167,694.78l-.912,5.929-5.929,14.139s-10.034,5.017-2.737,5.929,10.034-.912,11.4-3.193,4.1-5.929,4.1-5.929l-.456,9.578h2.281l3.738-13.082a8.251,8.251,0,0,0-1.4-7.373l-.054-.068c-1.824-2.28-.912-5.473-.912-5.473Z" transform="translate(-518.927 -524.796)" fill="#2f2e41"/>
    <circle id="Ellipse_3" data-name="Ellipse 3" cx="9.122" cy="9.122" r="9.122" transform="translate(117.065 35.502)" fill="#ffb8b8"/>
    <path id="Path_1005" data-name="Path 1005" d="M704.437,255.6l4.1,9.578,8.21-6.385s-5.017-6.841-5.017-7.753Z" transform="translate(-578.706 -203.232)" fill="#ffb8b8"/>
    <path id="Path_1006" data-name="Path 1006" d="M659.763,274.634l1.946,1.2s6.287-3.333,7.872-5.685c0,0,5.69-1.9,7.97,2.665s-1.368,36.031-1.368,36.031,2.28,3.193,1.824,4.561,1.368,3.649,1.368,3.649v2.737s-26,.456-26-1.824v-7.3l-2.737-.912s-2.736,5.929-3.649,5.473-5.473-4.1-5.473-4.1,7.3-24.173,11.4-28.277l5.017-8.666Z" transform="translate(-533.12 -216.796)" fill="#2196f3"/>
    <path id="Path_1007" data-name="Path 1007" d="M655.252,239.941a5.035,5.035,0,0,0-2.28-2.28c-1.368-.456-8.21-10.034-8.21-10.034l.912-5.017-9.122-1.368s.456,5.017,2.281,8.21,11.858,19.612,11.858,19.612l5.017-9.122Z" transform="translate(-529.521 -181.637)" fill="#2196f3"/>
    <path id="Path_1008" data-name="Path 1008" d="M697.4,420.756l-5.473,16.419s-11.4,12.77-5.017,12.77,9.578-11.4,9.578-11.4l7.754-16.419Z" transform="translate(-564.6 -326.218)" fill="#ffb8b8"/>
    <path id="Path_1009" data-name="Path 1009" d="M666.4,214.3c7.306-2.928,14.508-3.553,21.523,0v-5.9a3.844,3.844,0,0,0-3.844-3.844H669.442a3.037,3.037,0,0,0-3.037,3.037Z" transform="translate(-551.151 -169.544)" fill="#2f2e41"/>
    <path id="Path_1010" data-name="Path 1010" d="M730.02,282.069s4.161-3.525,6.414.518.884,21.374.428,23.655-3.649,16.419-3.649,16.419l-10.946-2.28s-.912-6.385,1.824-5.929Z" transform="translate(-591.519 -224.687)" fill="#2196f3"/>
    <path id="Path_1011" data-name="Path 1011" d="M668.025,210.738c-2.059-1.131-3.017-3.669-3.086-6.017s.5-4.672.546-7.021a5.423,5.423,0,0,0-.122-1.432,5.506,5.506,0,0,0-.788-1.63,15.217,15.217,0,0,0-12.235-7.034,5.434,5.434,0,0,0-2.07.381c-.507.2-.673.178-.77.8a5.18,5.18,0,0,0-3.555.113,12.028,12.028,0,0,0-3.109,1.852,14.044,14.044,0,0,0-1.572,1.361c-2.591,2.684-3.187,6.821-2.437,10.475.244,1.188-.927,2.335-1.9,3.065a7.041,7.041,0,0,0-2.563,2.515c-.457,1.073-.206,2.3-.3,3.464a5.924,5.924,0,0,1-3.779,4.977,1.823,1.823,0,0,0,1.759.619,4.329,4.329,0,0,0,1.833-.873,10.9,10.9,0,0,0,4.065-6.031,17.7,17.7,0,0,1,.164,3.954,11.048,11.048,0,0,1-.8,4.319A6.324,6.324,0,0,1,634.4,221.8a3.434,3.434,0,0,0,3.748-.747,7.834,7.834,0,0,0,2.157-3.594,17.913,17.913,0,0,0,.863-6.8,9.707,9.707,0,0,1,1.218,6.618,10.118,10.118,0,0,1-3.432,5.957,19.712,19.712,0,0,0,9.022-2.272,5.107,5.107,0,0,0,1.85-1.425c.9-1.242.684-2.937.432-4.447-.2-1.195,1.294-2.921.439-3.779a1.417,1.417,0,0,0-.95-.408,8.409,8.409,0,0,1-6.4-3.775,9.721,9.721,0,0,1-1.619-4.985,9.071,9.071,0,1,1,17.735,2.692,18.206,18.206,0,0,0-.66,3.074,24.143,24.143,0,0,1-.736,3.576c-.647,2.252-1.742,4.55-3.77,5.724a5.883,5.883,0,0,0,2.242.475,13.771,13.771,0,0,0,7.522-.9C666.359,215.671,668.189,213.291,668.025,210.738Z" transform="translate(-524.985 -157.247)" fill="#2f2e41"/>
    <path id="Path_1012" data-name="Path 1012" d="M484.119,252.288l-2.38,19.595.1-18.682Z" transform="translate(-349.039 -182.822)" opacity="0.2"/>
    <path id="Path_1013" data-name="Path 1013" d="M516.2,336.291l-.98,6.05,2.28.912Z" transform="translate(-373.294 -243.693)" opacity="0.2"/>
  </g>
</svg>
