<svg xmlns="http://www.w3.org/2000/svg" width="327" height="217.589" viewBox="0 0 327 217.589">
  <g id="Group_5" data-name="Group 5" transform="translate(0 0)">
    <path id="Path_1014" data-name="Path 1014" d="M429.483,303.262a94.366,94.366,0,0,1-53.8,83.479,92.727,92.727,0,0,1-39.848,8.939q-2.973,0-5.9-.184a1022.175,1022.175,0,0,0-127.869,0q-2.928.182-5.9.184a92.7,92.7,0,0,1-45.655-11.946,94.39,94.39,0,0,1-47.989-80.472c-1.039-52.807,40.762-95.981,93.207-96.224A93.137,93.137,0,0,1,266,238.512a93.137,93.137,0,0,1,70.274-31.474C388.722,207.281,430.522,250.455,429.483,303.262Z" transform="translate(-102.502 -178.091)" fill="#f2f2f2"/>
    <path id="Path_1015" data-name="Path 1015" d="M473.758,716.378a92.724,92.724,0,0,1-39.848,8.939q-2.973,0-5.9-.184a1022.128,1022.128,0,0,0-127.869,0q-2.928.182-5.9.184a92.7,92.7,0,0,1-45.655-11.946c21.076-9.13,62.242-15.331,109.577-15.331C410.523,698.04,455.34,705.628,473.758,716.378Z" transform="translate(-200.572 -507.729)" fill="#2f2e41"/>
    <path id="Path_1016" data-name="Path 1016" d="M660.651,352.38a7.553,7.553,0,0,0-7.846-1.243c-3.9,1.7-5.6,6.485-5.331,10.735s2.044,8.236,3.191,12.338c1.54,5.509,1.94,11.479.135,16.907s-6.054,10.211-11.564,11.745c-5.115,1.424-10.54,0-15.655-1.428" transform="translate(-452.332 -274.44)" fill="none" stroke="#3f3d56" stroke-miterlimit="10" stroke-width="1"/>
    <path id="Path_1017" data-name="Path 1017" d="M745.315,320.645a4.459,4.459,0,0,0-8.9-.514l-.513,8.9,8.9.514a4.459,4.459,0,0,0,.513-8.9Z" transform="translate(-527.736 -251.196)" fill="#2196f3"/>
    <path id="Path_1018" data-name="Path 1018" d="M716.183,391.188a4.459,4.459,0,0,0-8.9-.514l-.514,8.9,8.9.514a4.459,4.459,0,1,0,.514-8.9Z" transform="translate(-508.178 -298.555)" fill="#2196f3"/>
    <path id="Path_1019" data-name="Path 1019" d="M681.423,321.994a4.459,4.459,0,1,0-5.728,6.836l6.836,5.728,5.728-6.836a4.459,4.459,0,0,0-6.836-5.728Z" transform="translate(-486.247 -254.197)" fill="#2196f3"/>
    <path id="Path_1020" data-name="Path 1020" d="M758.742,336.925a7.553,7.553,0,0,0-7.232-3.288c-4.216.6-7.128,4.758-8,8.927s-.224,8.483-.211,12.742c.017,5.72-1.187,11.581-4.373,16.332s-8.555,8.229-14.275,8.24c-5.309.01-10.158-2.811-14.709-5.546" transform="translate(-510.312 -263.044)" fill="none" stroke="#3f3d56" stroke-miterlimit="10" stroke-width="1"/>
    <path id="Path_1021" data-name="Path 1021" d="M869.356,314.326a4.459,4.459,0,1,0-8.445-2.867l-2.867,8.445,8.445,2.867a4.459,4.459,0,1,0,2.867-8.445Z" transform="translate(-609.739 -246.163)" fill="#2196f3"/>
    <path id="Path_1022" data-name="Path 1022" d="M822.486,374.56a4.459,4.459,0,1,0-8.445-2.867l-2.867,8.445,8.445,2.867a4.459,4.459,0,1,0,2.867-8.445Z" transform="translate(-578.273 -286.602)" fill="#2196f3"/>
    <path id="Path_1023" data-name="Path 1023" d="M811.487,299.426a4.459,4.459,0,0,0-7.342,5.064l5.064,7.342,7.342-5.064a4.459,4.459,0,1,0-5.064-7.342Z" transform="translate(-573.024 -238.823)" fill="#2196f3"/>
    <path id="Path_1024" data-name="Path 1024" d="M774.291,162.677a7.553,7.553,0,0,1,7.325,3.075c2.422,3.5,1.349,8.464-1.121,11.933s-6.074,5.926-9.209,8.808c-4.21,3.872-7.694,8.737-9.017,14.3s-.23,11.868,3.646,16.074c3.6,3.9,8.962,5.547,14.06,7.03" transform="translate(-545.08 -148.248)" fill="none" stroke="#3f3d56" stroke-miterlimit="10" stroke-width="1"/>
    <path id="Path_1025" data-name="Path 1025" d="M776.145,121.294a4.459,4.459,0,1,1,7.84,4.252l-4.252,7.84-7.84-4.252a4.459,4.459,0,0,1,4.252-7.84Z" transform="translate(-550.334 -118.96)" fill="#2196f3"/>
    <path id="Path_1026" data-name="Path 1026" d="M763.765,196.6a4.459,4.459,0,1,1,7.84,4.252l-4.252,7.84-7.84-4.252a4.459,4.459,0,0,1,4.252-7.84Z" transform="translate(-542.023 -169.52)" fill="#2196f3"/>
    <path id="Path_1027" data-name="Path 1027" d="M832.071,149.873a4.459,4.459,0,1,1,1.269,8.828l-8.828,1.269-1.269-8.828a4.459,4.459,0,1,1,8.828-1.269Z" transform="translate(-586.344 -137.146)" fill="#2196f3"/>
    <rect id="Rectangle_393" data-name="Rectangle 393" width="8.216" height="4.272" transform="translate(144.767 108.807)" fill="#fbbebe"/>
    <rect id="Rectangle_394" data-name="Rectangle 394" width="8.216" height="4.272" transform="translate(144.767 108.807)" opacity="0.1"/>
    <circle id="Ellipse_4" data-name="Ellipse 4" cx="10.517" cy="10.517" r="10.517" transform="translate(119.133 26.318)" fill="#2f2e41"/>
    <path id="Path_1028" data-name="Path 1028" d="M561.249,442.06s-3.286-.986-3.944-.657,2.3,2.958,2.3,2.958Z" transform="translate(-407.773 -335.389)" fill="#fbbebe"/>
    <path id="Path_1029" data-name="Path 1029" d="M561.249,442.06s-3.286-.986-3.944-.657,2.3,2.958,2.3,2.958Z" transform="translate(-407.773 -335.389)" opacity="0.1"/>
    <path id="Path_1030" data-name="Path 1030" d="M485.918,699.54s7.559.986,8.873.986,4.93,1.315,2.958,2.958-14.46,3.944-16.1,2.958-3.944-3.944-2.3-4.272A53.135,53.135,0,0,0,485.918,699.54Z" transform="translate(-355.118 -508.736)" fill="#3f3d56"/>
    <path id="Path_1031" data-name="Path 1031" d="M351.627,614.223l-2.629,4.6,3.286,1.643,6.244,1.315,3.286-4.272-1.315-4.93Z" transform="translate(-234.302 -411.259)" fill="#fbbebe"/>
    <path id="Path_1032" data-name="Path 1032" d="M493.031,633.54s-4.272,18.075-3.615,19.061,1.972,3.615.657,4.6-6.573,1.315-6.573,1.315l1.643-9.531,2.3-11.5Z" transform="translate(-358.287 -464.426)" fill="#2f2e41"/>
    <path id="Path_1033" data-name="Path 1033" d="M461.73,509.5,466,528.887s.657,9.531-.986,13.146S454.5,583.771,454.5,583.771s9.2.329,11.174-.657,5.3-23.75,5.3-23.75,10.806-21.6,10.477-25.876,1.633-25.975-1.155-27.612S461.73,509.5,461.73,509.5Z" transform="translate(-338.818 -378.506)" fill="#2f2e41"/>
    <path id="Path_1034" data-name="Path 1034" d="M454.8,741.5l3.944-3.944s10.517,5.258,12.16,5.587,5.258,2.958,1.643,3.944-17.089.329-20.376,0-9.859-.657-8.873-2.629,2.629-8.873,2.629-8.873.908-1.256,1.44.358.86,3.914,2.175,3.914S454.8,741.5,454.8,741.5Z" transform="translate(-331.229 -532.625)" fill="#3f3d56"/>
    <path id="Path_1035" data-name="Path 1035" d="M629.582,499.2l9.2-.657,6.244,3.286-.657,3.944-2.629.657s-7.23-2.958-11.5-1.972S629.582,499.2,629.582,499.2Z" transform="translate(-455.401 -373.793)" fill="#a0616a"/>
    <path id="Path_1036" data-name="Path 1036" d="M654.367,491.113s3.615,3.954,0,5.428c0,0,.657,1.145,3.286,1.474s6.244,2.629,7.23,2.629,5.258-.657,2.629-4.272-13.146-11.5-13.146-11.5-2.958-1.315-3.944,1.315a12.784,12.784,0,0,1-1.506,3.23S653.71,490.456,654.367,491.113Z" transform="translate(-469.341 -364.394)" fill="#2f2e41"/>
    <path id="Path_1037" data-name="Path 1037" d="M581.5,597.422s2.958,11.174,2.958,11.831,3.944-2.629,3.944-2.629l.657-5.916s-2.629-2.629-2.629-4.272S581.5,597.422,581.5,597.422Z" transform="translate(-424.08 -439.154)" fill="#a0616a"/>
    <path id="Path_1038" data-name="Path 1038" d="M591.444,611.113s-2.3,2.958-3.944,1.972l.986,11.174s.657,5.587,2.958,3.286,4.6-13.8,4.6-13.8,3.286-6.9.657-7.888a27.367,27.367,0,0,0-4.6-1.315S592.1,611.442,591.444,611.113Z" transform="translate(-428.108 -444.957)" fill="#2f2e41"/>
    <path id="Path_1039" data-name="Path 1039" d="M534.5,509.2l9.859,20.376s3.286,11.5,4.6,11.831,6.244-1.972,6.9-2.3-5.587-13.146-5.587-15.446-7.559-15.118-7.559-15.118Z" transform="translate(-392.526 -380.507)" fill="#ff6584"/>
    <path id="Path_1040" data-name="Path 1040" d="M534.5,509.2l9.859,20.376s3.286,11.5,4.6,11.831,6.244-1.972,6.9-2.3-5.587-13.146-5.587-15.446-7.559-15.118-7.559-15.118Z" transform="translate(-392.526 -380.507)" opacity="0.1"/>
    <path id="Path_1041" data-name="Path 1041" d="M516.561,390.456s.329,6.9-.986,11.5,1.643,19.719,1.643,19.719a38.629,38.629,0,0,0,6.244,0c1.315-.329,19.061-.657,20.047,0s.657,12.16,0,11.831-17.747-3.944-25.963-2.629-9.2-.657-9.531-1.315-5.916-18.4-5.916-18.4l-1.972-8.545-2.629-9.2,1.643-8.873Z" transform="translate(-367.686 -297.259)" fill="#ff6584"/>
    <circle id="Ellipse_5" data-name="Ellipse 5" cx="8.873" cy="8.873" r="8.873" transform="translate(120.119 32.562)" fill="#a0616a"/>
    <circle id="Ellipse_6" data-name="Ellipse 6" cx="8.873" cy="8.873" r="8.873" transform="translate(103.522 53.431)" fill="#fbbebe"/>
    <path id="Path_1042" data-name="Path 1042" d="M502.5,252.965s5.916,3.944,4.93,6.244a20.188,20.188,0,0,1-3.615,4.93l-.329,3.615,4.93,1.643,12.488.657s-.657-11.174-4.6-14.132-8.545-4.93-9.2-7.559S502.5,252.965,502.5,252.965Z" transform="translate(-371.043 -205.45)" fill="#a0616a"/>
    <path id="Path_1043" data-name="Path 1043" d="M532.436,282.6c-2.151-4.018-8.2-3.53-9.456.852a3.964,3.964,0,0,0,.38,3.2c2.3,3.944,3.944,6.9,3.944,6.9l7.23-.657S534.676,286.786,532.436,282.6Z" transform="translate(-384.673 -226.979)" fill="#a0616a"/>
    <path id="Path_1044" data-name="Path 1044" d="M493.409,293.954s-8.639,5.451-7.981,9.066a96.757,96.757,0,0,1,1.315,12.16c0,2.3,2.3,9.531,5.587,10.845s3.286-2.3,7.888,1.972,9.531,6.244,9.2,6.9,1.315-5.916-1.315-8.545-5.587-10.188-2.958-13.474,4.93-11.831,4.93-11.831a1.958,1.958,0,0,0-2.3-1.643c-1.972.329-14.132-.986-14.789-2.629a2.775,2.775,0,0,1,.423-2.822Z" transform="translate(-359.557 -236.443)" fill="#2f2e41"/>
    <path id="Path_1045" data-name="Path 1045" d="M506.055,283.019s9.02-9.824,10.334-9.5,5.1,4.218,5.1,4.218l-5.1-3.561-10.334,9.392Z" transform="translate(-373.43 -222.722)" fill="#2f2e41"/>
    <path id="Path_1046" data-name="Path 1046" d="M447.359,313.54s1.234,13.292,2.918,14.534-12.777.913-12.777.913,3.286-10.188,1.315-11.5S447.359,313.54,447.359,313.54Z" transform="translate(-327.405 -249.593)" fill="#fbbebe"/>
    <path id="Path_1047" data-name="Path 1047" d="M443.932,342.839s-11.174-2.958-12.488-1.315S427.5,357.3,427.5,357.3a110.858,110.858,0,0,0,3.615,16.432c2.3,6.9,5.258,31.221,7.559,31.221s6.244-3.615,7.23-3.615,6.9-2.958,10.517-2.3a12.8,12.8,0,0,0,6.244-.329s-1.643-13.8-5.587-17.418-5.916-28.592-5.916-28.592S445.575,342.182,443.932,342.839Z" transform="translate(-320.691 -268.047)" fill="#3f3d56"/>
    <path id="Path_1048" data-name="Path 1048" d="M529.5,431.47s3.737,5.072,7.455,5.329l2.075-.071s-3.286,8.545-1.643,8.873,6.573-6.244,4.93-9.859-6.573-9.2-6.573-9.2Z" transform="translate(-389.169 -325.456)" fill="#fbbebe"/>
    <path id="Path_1049" data-name="Path 1049" d="M561.651,441.54s-5.587,5.258-3.286,7.559,5.258,0,5.258,0S565.924,445.812,561.651,441.54Z" transform="translate(-408.175 -335.526)" fill="#fbbebe"/>
    <path id="Path_1050" data-name="Path 1050" d="M561.651,441.54s-5.587,5.258-3.286,7.559,5.258,0,5.258,0S565.924,445.812,561.651,441.54Z" transform="translate(-408.175 -335.526)" opacity="0.1"/>
    <circle id="Ellipse_7" data-name="Ellipse 7" cx="10.517" cy="10.517" r="10.517" transform="translate(121.434 24.346)" fill="#2f2e41"/>
    <circle id="Ellipse_8" data-name="Ellipse 8" cx="6.244" cy="6.244" r="6.244" transform="translate(130.636 19.745)" fill="#2f2e41"/>
    <path id="Path_1051" data-name="Path 1051" d="M501.307,179.284a6.244,6.244,0,0,1,5.586-6.209,6.244,6.244,0,1,0,0,12.418A6.244,6.244,0,0,1,501.307,179.284Z" transform="translate(-369.357 -155.267)" fill="#2f2e41"/>
    <ellipse id="Ellipse_9" data-name="Ellipse 9" cx="8.38" cy="6.244" rx="8.38" ry="6.244" transform="translate(120.119 32.89)" fill="#2f2e41"/>
    <path id="Path_1052" data-name="Path 1052" d="M418.931,276.628a3.457,3.457,0,0,0-.158,1.872,9.893,9.893,0,0,0,.839,1.29,1.688,1.688,0,0,1-.7,2.4,2.349,2.349,0,0,0-1.614-.273,1.051,1.051,0,0,0-.815,1.14c.116.759,1,1.245,1.45,1.922a4.975,4.975,0,0,1,.549,1.63,14.559,14.559,0,0,1,.656,2.653,1.736,1.736,0,0,1-1.266,1.951,2.54,2.54,0,0,1-2.07-1c-.535-.609-.9-1.331-1.386-1.971-1.592-2.082-4.314-3.052-6.157-4.942a9.149,9.149,0,0,1-2.017-8.866,5.716,5.716,0,0,1,1.94-3.081c1.047-.769,2.445-1.015,3.618-1.612a23.735,23.735,0,0,0,3.325-2.5,5.393,5.393,0,0,1,4-1.279,31.993,31.993,0,0,1,3.1,1,5.022,5.022,0,0,0,3.423-.282l-.973,1.045a4.956,4.956,0,0,0,2.206.334,2.674,2.674,0,0,1-1.481,1.337,2.657,2.657,0,0,0,1.846.556,5.5,5.5,0,0,1-2.612,1.972c-.545.141-1.139.134-1.7.226a8.642,8.642,0,0,0-3.189,1.451c-.514.326-1.161.7-1.158,1.374C418.592,275.537,419.048,276,418.931,276.628Z" transform="translate(-306.165 -217.618)" fill="#2f2e41"/>
    <path id="Path_1053" data-name="Path 1053" d="M455.806,355.564s-2.958,10.845,2.3,13.146,16.1,10.845,18.075,13.8a11.036,11.036,0,0,0,4.272,3.944s7.887-6.573,6.244-8.545-8.216-7.887-8.216-7.887S461.722,351.948,455.806,355.564Z" transform="translate(-339.138 -277.484)" fill="#3f3d56"/>
    <path id="Path_1054" data-name="Path 1054" d="M480.906,348.978s-12.074-3.452-15.732-4.026-13.189.411-11.217,2.054,13.474,2.958,13.474,2.958l13.8,5.258Z" transform="translate(-338.275 -270.57)" fill="#a0616a"/>
    <path id="Path_1055" data-name="Path 1055" d="M532.7,314.526s.986,6.573.986,8.873,1.643,4.272.329,4.272-2.3-1.315-2.3,0-1.972,9.2,0,9.2,6.9-1.315,7.887-1.315a3.825,3.825,0,0,0,3.944-4.272c-.329-3.615-1.643-7.559-.986-8.216s.986-3.944.329-4.6-2.3-4.93-2.3-4.93Z" transform="translate(-390.065 -249.593)" fill="#2f2e41"/>
    <g id="Group_2" data-name="Group 2" transform="translate(209.519 129.8)" opacity="0.3">
      <path id="Path_1056" data-name="Path 1056" d="M742.6,515.944a2.3,2.3,0,0,0-.549,4.574l4.574.549.549-4.574a2.3,2.3,0,0,0-4.574-.549Z" transform="translate(-740.025 -513.915)" fill="#2196f3"/>
    </g>
    <g id="Group_3" data-name="Group 3" transform="translate(263.785 108.677)" opacity="0.3">
      <path id="Path_1057" data-name="Path 1057" d="M908.582,450.816a2.3,2.3,0,0,0-2.262,4.013l4.013,2.262,2.262-4.013a2.3,2.3,0,0,0-4.013-2.262Z" transform="translate(-905.148 -449.644)" fill="#2196f3"/>
    </g>
    <g id="Group_4" data-name="Group 4" transform="translate(240.082 139.002)" opacity="0.3">
      <path id="Path_1058" data-name="Path 1058" d="M835.6,543.944a2.3,2.3,0,0,0-.549,4.574l4.574.549.549-4.574a2.3,2.3,0,0,0-4.574-.549Z" transform="translate(-833.025 -541.915)" fill="#2196f3"/>
    </g>
  </g>
</svg>
