<?xml version="1.0" standalone="no"?>
<!DOCTYPE svg PUBLIC "-//W3C//DTD SVG 20010904//EN"
 "http://www.w3.org/TR/2001/REC-SVG-20010904/DTD/svg10.dtd">
<svg version="1.0" xmlns="http://www.w3.org/2000/svg"
 width="700.000000pt" height="700.000000pt" viewBox="0 0 700.000000 700.000000"
 preserveAspectRatio="xMidYMid meet">
<metadata>
Created by potrace 1.11, written by Peter Selinger 2001-2013
</metadata>
<g transform="translate(0.000000,700.000000) scale(0.100000,-0.100000)"
fill="#000000" stroke="none">
<path d="M2027 6744 c-1 -1 -42 -5 -92 -9 -49 -4 -92 -8 -95 -10 -3 -2 -23 -6
-45 -9 -146 -22 -329 -74 -465 -131 -112 -47 -308 -148 -320 -165 -3 -4 -16
-13 -30 -20 -96 -50 -328 -251 -444 -386 -99 -115 -104 -121 -166 -213 -193
-287 -321 -640 -358 -986 -9 -82 -8 -397 1 -465 20 -151 38 -241 63 -330 83
-284 194 -511 353 -725 25 -33 48 -62 51 -65 3 -3 17 -21 31 -40 38 -50 318
-328 1049 -1040 52 -51 250 -245 440 -430 190 -186 406 -397 480 -470 74 -73
283 -277 463 -453 181 -177 380 -372 442 -433 l113 -110 159 154 c170 167 752
736 968 947 445 435 799 782 879 859 608 591 910 891 988 981 187 216 348 520
428 808 25 93 25 89 52 242 34 189 31 536 -7 740 -62 334 -218 676 -433 950
-84 107 -286 303 -394 383 -323 240 -679 379 -1068 419 -129 13 -491 6 -518
-11 -4 -2 -29 -7 -57 -10 -114 -15 -362 -87 -473 -137 -175 -79 -352 -183
-473 -279 l-51 -40 -41 34 c-242 196 -653 378 -952 421 -23 3 -50 7 -60 9 -66
13 -407 29 -418 20z"/>
</g>
</svg>
